{"accessors":[{"name":"Sphere01_1_positions","componentType":5126,"count":500,"min":[-0.3427000045776367,-0.14980000257492065,-0.46209999918937683],"max":[0.3427000045776367,0.37599998712539673,0.4307999908924103],"type":"VEC3","bufferView":0,"byteOffset":0},{"name":"Sphere01_1_normals","componentType":5126,"count":500,"min":[-0.9884999990463257,-0.9994999766349792,-0.9951000213623047],"max":[0.9884999990463257,0.9998999834060669,0.996999979019165],"type":"VEC3","bufferView":0,"byteOffset":6000},{"name":"Sphere01_1_texcoords","componentType":5126,"count":500,"min":[0.013000000268220901,0.0020000000949949026],"max":[0.9940999746322632,0.9908999800682068],"type":"VEC2","bufferView":1,"byteOffset":0},{"name":"Sphere01_1_0_indices","componentType":5123,"count":1572,"min":[0],"max":[499],"type":"SCALAR","bufferView":2,"byteOffset":0}],"asset":{"generator":"obj2gltf","version":"2.0"},"buffers":[{"name":"google poly","byteLength":31088,"uri":"data:application/octet-stream;base64,"}],"bufferViews":[{"name":"bufferView_0","buffer":0,"byteLength":12000,"byteOffset":0,"byteStride":12,"target":34962},{"name":"bufferView_1","buffer":0,"byteLength":4000,"byteOffset":12000,"byteStride":8,"target":34962},{"name":"bufferView_2","buffer":0,"byteLength":3144,"byteOffset":16000,"target":34963},{"buffer":0,"byteOffset":19144,"byteLength":11942}],"images":[{"name":"b16","mimeType":"image/jpeg","bufferView":3}],"materials":[{"name":"Standardmaterial_15","pbrMetallicRoughness":{"baseColorTexture":{"index":0},"baseColorFactor":[1,1,1,1],"metallicFactor":0,"roughnessFactor":0.99},"emissiveFactor":[0,0,0],"alphaMode":"OPAQUE","doubleSided":false}],"meshes":[{"name":"Sphere01_1","primitives":[{"attributes":{"POSITION":0,"NORMAL":1,"TEXCOORD_0":2},"indices":3,"material":0,"mode":4}]}],"nodes":[{"name":"Sphere01","mesh":0}],"samplers":[{"magFilter":9729,"minFilter":9986,"wrapS":10497,"wrapT":10497}],"scene":0,"scenes":[{"nodes":[0]}],"textures":[{"name":"b16","sampler":0,"source":0}]}
