{"accessors":[{"name":"cadnav_1_positions","componentType":5126,"count":953,"min":[-0.1251000016927719,-1.3739999532699585,-0.38989999890327454],"max":[1.5283000469207764,-0.566100001335144,1.340999960899353],"type":"VEC3","bufferView":0,"byteOffset":0},{"name":"cadnav_1_normals","componentType":5126,"count":953,"min":[-0.9977999925613403,-0.9973999857902527,-0.9995999932289124],"max":[0.9977999925613403,0.9945999979972839,0.9934999942779541],"type":"VEC3","bufferView":0,"byteOffset":11436},{"name":"cadnav_1_texcoords","componentType":5126,"count":953,"min":[0.010200000368058681,0.010300000198185444],"max":[0.9929999709129333,0.9951000213623047],"type":"VEC2","bufferView":1,"byteOffset":0},{"name":"cadnav_1_0_indices","componentType":5123,"count":3552,"min":[0],"max":[952],"type":"SCALAR","bufferView":2,"byteOffset":0}],"asset":{"generator":"obj2gltf","version":"2.0"},"buffers":[{"name":"google poly","byteLength":80272,"uri":"data:application/octet-stream;base64,"}],"bufferViews":[{"name":"bufferView_0","buffer":0,"byteLength":22872,"byteOffset":0,"byteStride":12,"target":34962},{"name":"bufferView_1","buffer":0,"byteLength":7624,"byteOffset":22872,"byteStride":8,"target":34962},{"name":"bufferView_2","buffer":0,"byteLength":7104,"byteOffset":30496,"target":34963},{"buffer":0,"byteOffset":37600,"byteLength":42671}],"images":[{"name":"a18","mimeType":"image/jpeg","bufferView":3}],"materials":[{"name":"Standardmaterial_17","pbrMetallicRoughness":{"baseColorTexture":{"index":0},"baseColorFactor":[1,1,1,1],"metallicFactor":0,"roughnessFactor":0.99},"emissiveFactor":[0,0,0],"alphaMode":"OPAQUE","doubleSided":false}],"meshes":[{"name":"cadnav_1","primitives":[{"attributes":{"POSITION":0,"NORMAL":1,"TEXCOORD_0":2},"indices":3,"material":0,"mode":4}]}],"nodes":[{"name":"cadnav","mesh":0}],"samplers":[{"magFilter":9729,"minFilter":9986,"wrapS":10497,"wrapT":10497}],"scene":0,"scenes":[{"nodes":[0]}],"textures":[{"name":"a18","sampler":0,"source":0}]}
