{"accessors":[{"name":"UmbrellaPalmTree_mesh_1_positions","componentType":5126,"count":1525,"min":[-3.1115000247955322,0.265500009059906,-3.0994999408721924],"max":[2.750699996948242,9.721199989318848,2.87280011177063],"type":"VEC3","bufferView":0,"byteOffset":0},{"name":"UmbrellaPalmTree_mesh_1_normals","componentType":5126,"count":1525,"min":[-1,-0.9977999925613403,-0.9997000098228455],"max":[0.9997000098228455,0.9973999857902527,0.9997000098228455],"type":"VEC3","bufferView":0,"byteOffset":18300},{"name":"UmbrellaPalmTree_mesh_1_texcoords","componentType":5126,"count":1525,"min":[0.00839999970048666,0.00800000037997961],"max":[0.9884999990463257,0.9921000003814697],"type":"VEC2","bufferView":1,"byteOffset":0},{"name":"UmbrellaPalmTree_mesh_1_0_indices","componentType":5123,"count":5916,"min":[0],"max":[1524],"type":"SCALAR","bufferView":2,"byteOffset":0}],"asset":{"generator":"obj2gltf","version":"2.0"},"buffers":[{"name":"google poly","byteLength":82960,"uri":"data:application/octet-stream;base64,"}],"bufferViews":[{"name":"bufferView_0","buffer":0,"byteLength":36600,"byteOffset":0,"byteStride":12,"target":34962},{"name":"bufferView_1","buffer":0,"byteLength":12200,"byteOffset":36600,"byteStride":8,"target":34962},{"name":"bufferView_2","buffer":0,"byteLength":11832,"byteOffset":48800,"target":34963},{"buffer":0,"byteOffset":60632,"byteLength":22327}],"images":[{"name":"UmbrellaPalmTree_BaseColor-nen","mimeType":"image/jpeg","bufferView":3}],"materials":[{"name":"_UmbrellaPalmTreeUmbrellaPalmTree_mat","pbrMetallicRoughness":{"baseColorTexture":{"index":0},"baseColorFactor":[1,1,1,1],"metallicFactor":0,"roughnessFactor":0.97},"emissiveFactor":[0,0,0],"alphaMode":"OPAQUE","doubleSided":false}],"meshes":[{"name":"UmbrellaPalmTree_mesh_1","primitives":[{"attributes":{"POSITION":0,"NORMAL":1,"TEXCOORD_0":2},"indices":3,"material":0,"mode":4}]}],"nodes":[{"name":"UmbrellaPalmTree_mesh","mesh":0}],"samplers":[{"magFilter":9729,"minFilter":9986,"wrapS":10497,"wrapT":10497}],"scene":0,"scenes":[{"nodes":[0]}],"textures":[{"name":"UmbrellaPalmTree_BaseColor-nen","sampler":0,"source":0}]}
